<svg width="717" height="354" viewBox="0 0 717 354" fill="none" xmlns="http://www.w3.org/2000/svg">
<g clip-path="url(#clip0)">
<path d="M18.4984 255.881C18.8426 255.967 19.0147 256.052 19.3589 256.138C22.0262 262.139 25.8121 266.768 33.2979 272.682C41.0419 278.34 48.8718 283.741 56.7018 289.141C60.7458 288.627 62.8109 288.37 66.7689 287.941C65.9085 291.284 65.4782 292.913 64.7038 296.256C50.9369 298.142 37.342 300.542 23.8331 303.628C33.1258 308.686 42.5906 313.572 52.1415 318.201C55.5832 317.258 57.3041 316.829 60.7458 315.972C60.1435 319.487 59.7994 321.287 59.2831 324.973C47.323 328.488 35.6211 332.345 23.9192 336.631C15.659 339.546 7.05462 343.317 1.71992 350.518C1.37574 350.518 1.20366 350.518 0.773438 350.518C1.46179 341.774 1.892 337.574 2.92453 329.173C3.2687 329.173 3.44079 329.259 3.78496 329.259C6.36627 333.117 9.63593 332.088 16.4334 329.688C27.7911 325.659 39.2349 321.887 50.8508 318.715C41.3 314 31.8352 309.114 22.5425 303.971C14.9706 305.857 10.6685 307.571 6.28023 312.2C5.93606 312.115 5.76397 312.115 5.41979 312.029C6.71045 303.885 7.48484 299.856 9.11967 292.056C9.46384 292.141 9.63593 292.141 9.98011 292.227C12.6475 296.685 16.6055 295.656 25.468 294.027C35.363 292.056 45.4301 290.427 55.4111 289.141C48.6997 284.684 42.0744 280.14 35.6211 275.426C26.3284 268.568 20.6495 265.653 15.1427 270.111C14.7985 270.025 14.6265 269.939 14.2823 269.854C16.0032 264.282 16.7776 261.453 18.4984 255.881Z" fill="black"/>
<path d="M74.0828 217.477C83.3755 223.221 86.5591 234.45 82.343 244.651C76.7502 258.195 61.5204 267.539 46.807 263.082C30.6308 258.195 24.1775 239.508 29.5982 224.764C33.2981 214.734 44.7419 204.705 56.4439 209.848C56.0136 210.705 53.0021 216.877 53.0021 216.877C52.5719 217.735 52.3998 218.163 51.9696 219.106C56.2718 214.134 65.3064 212.077 74.0828 217.477ZM50.1627 223.306C46.2907 232.307 42.7629 241.308 39.4072 250.566C44.7419 253.909 51.3673 255.71 57.2183 255.795C67.7156 256.224 77.6106 251.081 81.3105 240.965C84.322 232.736 81.3105 223.392 73.9107 218.506C65.9947 213.277 54.5509 213.963 50.1627 223.306ZM38.5468 250.052C42.6769 238.737 46.9791 227.593 52.1417 216.706C41.7304 213.62 30.9749 219.535 28.9099 230.421C27.3611 238.394 31.8354 245.509 38.5468 250.052Z" fill="black"/>
<path d="M99.1211 208.819C99.2932 208.905 99.8095 209.248 99.8095 209.248C97.4003 213.277 96.1957 215.334 93.8725 219.535C93.8725 219.535 93.3562 219.278 93.1841 219.192C92.926 217.477 91.8074 216.02 88.1936 214.134C68.4896 203.848 48.6996 193.561 28.9956 183.103C25.5538 181.217 24.4353 181.045 23.0586 182.931C22.8865 182.846 22.2842 182.503 22.2842 182.503C23.5748 178.045 24.2632 175.816 25.7259 171.359C25.898 171.102 25.9841 170.93 26.1561 170.587C48.0112 183.017 70.0384 195.104 92.0656 207.276C95.6794 209.248 97.4863 209.505 99.1211 208.819Z" fill="black"/>
<path d="M109.189 193.475C109.361 193.561 109.877 193.904 109.877 193.904C107.21 197.676 105.919 199.647 103.424 203.59C103.424 203.59 102.908 203.333 102.735 203.162C102.649 201.447 101.531 199.99 98.003 197.847C78.8153 186.36 59.6275 174.959 40.5259 163.387C37.1702 161.329 36.0516 161.072 34.5888 162.787C34.4168 162.701 33.8145 162.358 33.8145 162.358C35.3632 158.072 36.2237 155.929 37.8585 151.728C38.0306 151.471 38.1166 151.3 38.2887 151.043C59.4555 164.758 80.7943 178.131 102.133 191.589C105.661 193.647 107.468 194.075 109.189 193.475Z" fill="black"/>
<path d="M131.043 165.015C136.292 157.557 132.162 147.271 130.785 144.013C131.043 143.928 131.215 143.928 131.474 143.842C135.087 151.814 136.206 161.329 130.527 168.701C121.492 180.445 103.595 181.56 91.6353 173.759C78.7288 165.272 74.1685 147.099 84.6658 134.841C88.6238 130.212 96.884 125.755 103.079 123.954C105.574 126.955 106.779 128.412 109.274 131.412C109.102 131.584 109.016 131.669 108.844 131.841C99.6374 128.669 87.1611 130.641 82.6007 139.384C75.8893 152.243 91.7214 166.73 103.337 170.673C112.544 173.93 124.848 173.845 131.043 165.015Z" fill="black"/>
<path d="M165.031 97.2948C173.893 108.353 175.614 126.183 164.515 135.87C154.62 144.528 137.927 141.956 128.548 133.47C117.277 123.269 115.298 103.81 127.602 93.4373C138.701 84.1793 156.082 86.1509 165.031 97.2948ZM155.824 99.3521C146.445 92.5801 130.527 89.2369 122.783 100.124C114.609 111.696 128.376 125.069 137.325 130.384C146.359 135.698 162.363 140.413 168.559 129.869C174.582 119.668 164.515 105.61 155.824 99.3521Z" fill="black"/>
<path d="M249.354 81.8647C249.44 82.0362 249.698 82.5505 249.698 82.5505C245.482 84.3507 243.417 85.2936 239.287 87.2652C239.287 87.2652 239.029 86.7509 238.943 86.5794C239.803 85.1222 239.459 83.322 237.566 80.3217C232.833 72.521 228.101 64.6345 223.197 56.9195C218.894 50.0618 210.72 43.1183 204.869 48.3473C196.609 55.7194 205.385 71.4923 210.204 79.7216C212.871 84.1792 214.162 86.408 216.743 90.7798C218.722 94.0373 220.099 95.1516 221.82 95.3231C221.906 95.4945 222.164 96.0089 222.164 96.0089C218.12 98.2377 216.227 99.352 212.355 101.581C212.355 101.581 212.097 101.152 211.925 100.895C212.613 99.352 212.269 97.6376 210.204 94.3802C205.213 86.408 200.223 78.4358 195.232 70.5494C190.758 63.4344 182.24 57.4339 176.303 63.0058C166.752 71.7495 180.949 90.6084 186.456 98.1519C188.607 101.152 189.726 102.609 191.877 105.61C194.2 108.781 195.749 109.724 197.469 109.81C197.556 109.982 197.9 110.41 197.9 110.41C194.114 112.896 192.221 114.096 188.521 116.668C188.521 116.668 188.177 116.239 188.005 116.068C188.521 114.525 188.091 112.725 185.681 109.553C177.938 99.352 170.108 89.1511 162.364 79.0359C159.954 75.8641 159.008 75.1784 157.029 76.0356C156.857 75.8641 156.513 75.4355 156.513 75.4355C159.266 72.4353 160.643 70.978 163.482 68.0634C163.74 67.892 163.826 67.8063 164.085 67.6348C168.989 74.4069 173.894 81.1789 178.798 87.8653C173.463 79.1216 167.698 65.1489 179.056 58.8911C187.833 54.0907 198.072 60.0913 202.89 68.1491C203.148 68.5778 203.32 68.7492 203.579 69.1778C199.535 61.0342 197.814 49.0331 208.053 44.5755C217.432 40.4609 226.38 47.4901 230.854 55.2051C234.984 62.4058 239.631 69.9493 243.933 77.2357C246.256 80.4931 247.633 81.5218 249.354 81.8647Z" fill="black"/>
<path d="M292.719 51.6047C294.182 61.3771 287.298 69.7779 278.092 72.6924C265.185 76.8071 250.041 71.4066 244.363 58.8054C238.081 44.8327 247.202 30.0885 260.883 25.8023C270.004 22.9735 284.115 24.7737 287.729 35.6604C286.782 35.8318 280.587 37.2891 280.587 37.2891C279.727 37.4606 279.296 37.632 278.35 37.8035C284.631 37.9749 291.342 42.6896 292.719 51.6047ZM274.306 39.0036C265.701 41.1466 257.011 43.804 248.665 46.7186C249.439 52.2905 252.193 57.8625 255.634 61.9771C261.571 69.5207 271.036 73.2067 280.157 69.8636C287.556 67.2062 292.891 59.8341 291.859 52.0334C290.826 43.3754 283.168 36.7748 274.306 39.0036ZM248.579 45.7756C258.99 42.261 269.659 39.175 280.329 36.6033C276.113 27.6882 265.529 24.0022 256.667 28.2883C250.041 31.6315 247.632 38.6607 248.579 45.7756Z" fill="black"/>
<path d="M356.392 42.3468C355.101 50.5761 350.885 60.0056 341.506 60.8628C332.213 61.72 326.879 53.2335 326.19 44.9185C324.9 35.0604 323.695 25.1166 322.404 15.2586C319.823 15.5157 318.619 15.6872 316.037 15.9443C315.951 15.6014 315.951 15.5157 315.951 15.1728C325.158 14.0584 324.9 5.4005 324.383 0.7715C327.997 0.428611 329.718 0.257167 333.332 0C334.02 7.45783 326.19 13.6298 319.737 14.6585C329.288 13.6298 334.106 13.2012 343.743 12.6869C343.743 13.0298 343.743 13.1155 343.829 13.4584C338.753 13.7156 336.171 13.887 331.009 14.3156C332.041 24.688 333.074 35.0604 334.106 45.5185C334.967 54.0907 337.806 60.3485 345.464 58.7197C351.487 57.5196 354.327 49.6332 355.961 42.0896C356.047 42.1753 356.22 42.2611 356.392 42.3468Z" fill="black"/>
<path d="M407.76 36.7749C404.921 50.0618 392.272 60.3485 378.591 60.2627C366.201 60.2627 356.134 50.4047 355.36 38.3179C354.413 22.8021 370.331 11.9154 384.442 12.8583C396.144 13.5441 410.772 22.8879 407.76 36.7749ZM399.758 32.6602C398.123 21.3448 387.626 12.1726 375.924 14.2299C363.276 16.373 361.038 31.2029 363.62 41.3181C366.201 51.1762 374.633 61.72 385.733 58.8912C396.574 56.1481 401.307 42.8611 399.758 32.6602Z" fill="black"/>
<path d="M497.417 89.2368C497.331 89.4082 497.073 89.8369 497.073 89.8369C492.943 87.8652 490.792 86.8366 486.662 85.0364C486.662 85.0364 486.92 84.6078 487.006 84.3506C488.727 84.0935 490.017 82.7219 491.308 79.5502C494.75 71.4923 498.363 63.3487 501.719 55.2908C504.645 48.1758 505.161 38.3178 496.987 37.632C485.973 36.6891 478.746 50.919 474.615 60.0912C472.636 64.4631 471.69 66.6919 469.797 71.0637C468.334 74.3211 468.42 75.9499 469.367 77.3214C469.281 77.4929 469.109 78.0072 469.109 78.0072C464.806 76.4642 462.655 75.6927 458.353 74.2354C458.353 74.2354 458.525 73.8068 458.611 73.5496C460.246 73.121 461.451 71.9209 462.828 68.6635C466.097 60.6913 469.453 52.7191 472.723 44.747C475.648 37.632 474.96 28.4597 466.441 27.8597C453.793 26.9167 447.426 45.2613 444.414 54.7765C443.382 57.9482 442.865 59.4912 441.919 62.5772C440.886 65.9204 441.145 67.5491 442.177 68.7492C442.091 68.9206 442.005 69.435 442.005 69.435C437.531 68.2349 435.38 67.7205 430.905 66.6919C430.905 66.6919 431.077 66.1775 431.077 66.0061C432.712 65.406 433.831 64.2059 434.777 60.8627C437.961 50.0617 441.231 39.2607 444.328 28.4597C445.275 25.1166 445.275 24.0879 443.21 23.3164C443.296 23.1449 443.382 22.6306 443.382 22.6306C447.598 22.6306 449.749 22.6306 453.965 22.7163C454.223 22.8021 454.395 22.8021 454.739 22.8878C452.072 31.3743 450.695 35.5747 447.942 44.0612C451.814 35.2318 460.332 23.5736 471.776 27.3453C480.725 30.2599 483.564 40.3751 479.864 48.6045C479.692 49.0331 479.606 49.2045 479.52 49.6331C484.08 41.4038 492.599 33.946 502.58 37.632C511.958 41.1466 512.217 52.0333 508.517 59.7483C505.075 67.1205 501.633 75.0069 498.277 82.5505C496.471 86.1508 496.557 87.7795 497.417 89.2368Z" fill="black"/>
<path d="M545.774 81.5219C536.309 87.6939 526.931 94.4659 518.068 101.067C512.647 105.01 503.957 112.382 496.643 108.867C492.513 106.81 490.448 102.781 490.62 97.6376C494.578 96.2661 496.557 95.666 500.601 94.3802C500.687 94.6374 500.773 94.8088 500.859 95.066C497.074 99.695 494.32 107.239 498.794 108.867C503.011 110.496 509.55 106.381 516.519 101.324C519.015 90.437 521.424 79.5502 523.317 68.5778C525.124 57.8625 525.21 52.8906 522.542 47.0615C522.715 46.8043 522.801 46.6329 522.973 46.3757C529.082 49.1188 532.093 50.5761 538.03 53.5764C537.858 53.8336 537.772 54.005 537.6 54.2622C533.642 55.4623 533.04 58.2911 531.835 64.3774C530.114 74.5784 527.877 84.6936 525.382 94.7231C531.835 89.9226 538.547 85.3794 545.258 80.9218C554.465 74.8355 559.197 70.8066 557.39 65.1489C557.562 64.8917 557.648 64.7203 557.906 64.4631C562.295 67.0348 564.36 68.4064 568.662 71.1495C568.49 71.4066 568.318 71.5781 568.146 71.8352C559.885 73.2925 552.916 77.4072 545.774 81.5219Z" fill="black"/>
<path d="M616.244 119.154C612.544 121.211 610.737 122.326 607.037 124.469C606.865 124.297 606.865 124.212 606.693 124.126C611.684 115.639 611.77 106.21 607.295 102.181C601.961 97.3804 595.68 97.8091 592.324 100.724C580.708 111.096 608.586 130.126 593.614 141.699C586.387 147.271 576.062 145.642 569.436 139.556C564.101 134.584 561.864 128.926 561.004 122.583C564.618 119.84 566.425 118.468 570.125 115.811C570.297 115.896 570.383 115.982 570.469 116.154C567.457 123.097 566.855 134.755 572.448 140.327C577.008 144.785 583.719 145.642 587.763 142.899C600.412 132.955 572.534 114.782 587.505 102.095C593.959 96.6089 603.079 96.9518 609.274 102.867C613.232 106.381 615.986 113.925 616.244 119.154Z" fill="black"/>
<path d="M642.401 175.816C626.999 185.331 607.467 181.303 596.023 167.416C594.732 165.873 593.872 164.158 593.356 162.615C587.419 167.33 584.493 169.73 578.987 174.53C576.147 177.016 575.631 177.874 576.405 179.331C576.233 179.502 575.889 179.845 575.889 179.845C573.136 178.045 571.759 177.102 569.005 175.388C568.833 175.216 568.747 175.131 568.575 174.959C586.042 158.586 604.972 143.928 623.557 128.926C626.569 126.44 627.257 125.497 626.138 123.783C626.31 123.611 626.741 123.269 626.741 123.269C630.182 125.583 631.903 126.783 635.259 129.269C635.431 129.526 635.517 129.612 635.775 129.869C627.773 136.298 619.599 142.47 611.425 148.642C622.094 142.213 641.282 135.27 649.8 147.528C655.996 156.529 651.607 170.159 642.401 175.816ZM639.303 168.273C646.187 163.301 652.812 151.471 645.326 144.956C635.775 136.556 615.383 145.985 606.09 152.757C601.1 156.529 598.604 158.5 593.786 162.272C593.872 162.787 594.646 164.93 596.539 167.158C607.983 180.188 626.31 177.702 639.303 168.273Z" fill="black"/>
<path d="M637.84 236.508C636.291 232.822 635.517 230.936 633.882 227.335C639.561 224.764 642.4 223.478 648.251 220.906C639.733 222.535 630.096 220.478 625.794 212.248C622.18 205.305 622.008 196.647 628.289 191.504C635.861 185.246 646.186 185.589 653.844 191.589C661.502 183.789 674.409 185.589 679.141 195.875C683.443 205.219 681.206 217.563 669.934 220.992C661.244 224.507 652.468 228.021 643.777 231.622C640.163 233.165 638.873 234.45 638.528 236.165C638.356 236.336 637.84 236.508 637.84 236.508ZM650.144 220.22C656.598 217.392 659.867 216.02 666.234 213.277C666.234 212.677 665.89 209.934 664.428 206.934C657.888 193.304 642.831 187.817 630.785 198.961C626.052 202.99 625.622 209.677 628.117 213.706C632.678 220.906 642.4 221.592 650.144 220.22ZM654.705 192.361C659.437 196.304 663.137 201.79 665.374 206.419C666.493 208.648 666.923 210.877 667.181 212.763C667.439 212.677 667.611 212.591 667.869 212.42C675.785 208.991 681.206 202.647 677.592 195.447C673.204 186.703 661.588 185.332 654.705 192.361Z" fill="black"/>
<path d="M651.435 273.282C654.533 280.997 661.932 285.541 669.59 287.941C669.504 288.198 669.504 288.37 669.418 288.712C660.039 285.969 651.865 279.969 648.596 270.368C643.863 256.224 650.058 239.422 664.514 234.022C680.26 228.193 697.038 238.136 701.598 253.652C703.663 260.853 703.491 270.282 701.77 277.654C697.898 277.74 696.005 277.74 692.047 277.826C691.961 277.569 691.961 277.397 691.875 277.14C700.136 270.454 703.663 258.024 698.759 248.766C691.789 235.479 671.655 237.622 661.072 245.594C652.554 252.023 647.305 263.082 651.435 273.282Z" fill="black"/>
<path d="M679.83 353.347C667.956 351.976 659.609 339.974 658.835 328.745C657.803 313.401 664.428 297.028 681.292 293.77C699.62 290.17 713.129 306.543 715.624 322.744C717.431 334.231 713.989 350.604 699.62 352.404C699.534 351.204 699.017 342.975 699.017 342.975C698.931 341.86 698.845 341.26 698.759 340.06C697.296 349.147 688.692 354.376 679.83 353.347ZM698.415 334.745C697.383 323.859 696.006 312.972 694.199 302.171C687.832 301.399 681.034 302.857 675.786 305.514C665.977 310.743 659.954 320.944 661.675 332.088C663.137 341.432 669.763 350.604 679.572 352.233C690.327 353.947 699.448 345.632 698.415 334.745ZM695.145 302.257C697.383 315.715 699.017 329.259 700.05 342.803C711.924 339.974 716.484 327.973 713.559 316.915C711.494 309.372 702.889 302.771 695.145 302.257Z" fill="black"/>
</g>
<defs>
<clipPath id="clip0">
<rect width="715.281" height="353.433" fill="white" transform="translate(0.859375)"/>
</clipPath>
</defs>
</svg>
