<svg width="529" height="272" viewBox="0 0 529 272" fill="none" xmlns="http://www.w3.org/2000/svg">
<path fill-rule="evenodd" clip-rule="evenodd" d="M251.971 46.8597C258.622 46.2255 261.753 39.4937 262.83 33.348C264.899 40.8111 271.481 46.3981 279.324 46.3981C289.414 46.4641 298.744 38.5493 300.838 28.3262C303.059 17.6414 292.27 10.4522 283.639 9.92451C273.231 9.19901 261.491 17.5754 262.189 29.5134C262.251 30.5308 262.396 31.5277 262.616 32.4964C261.407 38.2758 259.312 44.2917 254.89 45.2108C249.242 46.464 247.148 41.6492 246.513 35.0536C245.751 27.0089 244.99 19.03 244.229 11.0512L244.228 11.0456C248.036 10.7159 249.94 10.584 253.684 10.3861C253.621 10.1223 253.621 10.0563 253.621 9.79248C246.513 10.1882 242.959 10.518 235.915 11.3095C240.674 10.518 246.449 5.76917 245.942 0.0310059C243.498 0.212433 242.228 0.338409 239.979 0.561478L239.342 0.624603C239.722 4.18623 239.913 10.8478 233.122 11.7052C233.122 11.969 233.122 12.035 233.186 12.2988C234.138 12.1999 234.836 12.1174 235.534 12.0349C236.232 11.9525 236.93 11.8701 237.882 11.7711C238.358 15.5652 238.818 19.3758 239.279 23.1864C239.739 26.9937 240.198 30.8011 240.674 34.5919C241.182 40.9896 245.117 47.5193 251.971 46.8597ZM215.987 39.7365C217.066 47.2555 211.989 53.7192 205.198 55.9617C195.679 59.1276 184.509 54.9724 180.321 45.2768C175.688 34.526 182.415 23.1816 192.506 19.8838C199.233 17.7072 209.641 19.0923 212.306 27.4687C211.608 27.6006 207.039 28.7219 207.039 28.7219C206.75 28.7818 206.527 28.8418 206.304 28.9018C206.037 28.9737 205.769 29.0457 205.389 29.1176C210.021 29.2495 214.971 32.8771 215.987 39.7365ZM202.406 30.041C196.06 31.6899 189.65 33.7345 183.494 35.977C184.065 40.2642 186.096 44.5513 188.634 47.7172C193.013 53.5213 199.994 56.3574 206.721 53.7851C212.179 51.7405 216.114 46.0683 215.352 40.0663C214.591 33.4048 208.943 28.3261 202.406 30.041ZM183.43 35.2515C191.109 32.5473 198.979 30.1729 206.848 28.1942C203.739 21.3348 195.933 18.4987 189.396 21.7965C184.509 24.3688 182.732 29.7772 183.43 35.2515ZM184.256 63.5466L184.002 63.019C182.733 62.7551 181.718 61.9637 180.004 59.4573C178.8 57.3299 177.559 55.174 176.317 53.0147C174.285 49.484 172.248 45.9445 170.358 42.5067C167.058 36.5706 160.457 31.1623 153.54 34.3282C145.988 37.7578 147.257 46.9917 150.24 53.2575C150.145 53.0926 150.065 52.9772 149.986 52.8618C149.907 52.7463 149.827 52.6309 149.732 52.466C146.178 46.2661 138.626 41.6492 132.153 45.3428C123.776 50.1576 128.028 60.9084 131.962 67.6359C128.345 62.4913 124.728 57.2808 121.11 52.0703C120.92 52.2022 120.856 52.2682 120.666 52.4001C118.572 54.6425 117.556 55.7638 115.526 58.0723C115.526 58.0723 115.779 58.402 115.906 58.534C117.366 57.8744 118.064 58.402 119.841 60.8424L120.614 61.8956C121.447 63.0299 122.281 64.1656 123.115 65.3024C127.753 71.6192 132.417 77.9709 137.04 84.3227C138.816 86.7631 139.134 88.1481 138.753 89.3354C138.88 89.4673 139.134 89.7971 139.134 89.7971C141.311 88.2185 142.64 87.3116 144.506 86.0382L144.511 86.0346L144.513 86.0335L144.516 86.0316L144.532 86.0202C144.998 85.7025 145.497 85.3619 146.051 84.9823C146.051 84.9823 145.797 84.6525 145.734 84.5206C144.465 84.4546 143.322 83.7291 141.609 81.2887C140.816 80.1352 140.213 79.278 139.611 78.4211C139.008 77.5632 138.404 76.7054 137.611 75.5506C137.51 75.407 137.406 75.258 137.298 75.104C133.042 69.0332 123.252 55.0697 130.122 48.5087C134.501 44.2215 140.784 48.8384 144.084 54.3128C147.752 60.3591 151.42 66.4712 155.088 72.5833L155.09 72.5862L155.091 72.589L155.093 72.5918L155.094 72.5947L155.096 72.5975L155.098 72.6003L155.099 72.6032L155.101 72.606L155.103 72.6089L155.104 72.6117L155.127 72.6485C156.65 75.1548 156.903 76.474 156.396 77.6612C156.445 77.7381 156.504 77.835 156.558 77.9247C156.642 78.0656 156.713 78.1888 156.713 78.1888C157.219 77.8847 157.68 77.6076 158.112 77.3479C160.114 76.1429 161.494 75.3124 163.948 73.9017L163.694 73.374C162.425 73.2421 161.409 72.3847 159.95 69.8784C159.352 68.8219 158.848 67.9282 158.377 67.0928C157.348 65.2683 156.476 63.7226 155.127 61.3701C151.573 55.0383 145.099 42.9024 151.192 37.2302C155.507 33.2069 161.536 38.5493 164.709 43.8258C167.753 48.8199 170.706 53.9073 173.645 58.9703L173.646 58.9709L173.646 58.9714L173.646 58.972L173.647 58.9725L173.647 58.9731L173.647 58.9736L173.648 58.9742L173.648 58.9747L173.648 58.9753C174.202 59.9286 174.755 60.881 175.308 61.8318C176.704 64.1402 176.958 65.5253 176.323 66.6465L176.577 67.1742C179.623 65.6572 181.146 64.9317 184.256 63.5466ZM121.808 74.891C128.345 83.3993 129.614 97.1182 121.428 104.571C114.129 111.233 101.817 109.254 94.9 102.724C86.5863 94.8756 85.1266 79.9036 94.2018 71.9229C102.389 64.7997 115.208 66.3167 121.808 74.891ZM115.018 76.4739C108.1 71.2634 96.3596 68.6911 90.6479 77.0675C84.6189 85.9716 94.773 96.2607 101.373 100.35C108.037 104.439 119.841 108.067 124.41 99.9543C128.853 92.1055 121.428 81.2887 115.018 76.4739ZM96.5494 110.837C97.5648 113.344 100.611 121.258 96.7398 126.996C92.1705 133.79 83.0953 133.856 76.3047 131.35C67.7372 128.316 56.06 117.169 61.0101 107.276C64.3737 100.548 73.5758 99.0311 80.3663 101.471L80.6837 101.142C80.0356 100.329 79.5056 99.6631 79.0104 99.041L78.4076 98.2834L78.3619 98.226C77.692 97.384 77.0178 96.5368 76.1143 95.4035C71.545 96.7886 65.4525 100.218 62.5333 103.78C54.7908 113.212 58.1543 127.194 67.6738 133.724C76.4951 139.726 89.6954 138.869 96.359 129.833C100.548 124.16 99.7226 116.839 97.0571 110.705C97.0032 110.724 96.9543 110.737 96.9076 110.749C96.7897 110.777 96.6859 110.79 96.5494 110.837ZM80.6204 148.894C80.7473 148.96 81.1281 149.224 81.1281 149.224C79.1607 152.126 78.2087 153.643 76.3683 156.677C76.3683 156.677 76.2626 156.622 76.1439 156.55C76.0375 156.486 75.9207 156.409 75.8607 156.347C75.7972 155.028 74.9722 153.906 72.3702 152.258C68.4398 149.803 64.5095 147.354 60.5805 144.905C50.3621 138.537 40.153 132.174 29.9769 125.743C27.5018 124.16 26.6768 123.962 25.598 125.282C25.5375 125.25 25.405 125.174 25.2829 125.103C25.2292 125.071 25.1774 125.041 25.1347 125.016C25.0706 124.978 25.0268 124.952 25.0268 124.952C25.9846 122.187 26.5854 120.581 27.4653 118.229C27.6348 117.776 27.8147 117.295 28.0095 116.773C28.0731 116.674 28.1207 116.592 28.1683 116.509L28.1687 116.509C28.2161 116.426 28.2636 116.344 28.3268 116.246C41.4469 125.114 54.6566 133.796 67.8807 142.488C70.3922 144.139 72.9043 145.79 75.4164 147.443C78.0184 149.026 79.3511 149.355 80.6204 148.894ZM73.7027 161.03C73.7027 161.03 73.322 160.766 73.195 160.7C71.9892 161.227 70.6565 161.03 67.991 159.513C66.6105 158.717 65.2299 157.921 63.8494 157.126L60.0121 154.916C46.4282 147.095 32.8589 139.281 19.3783 131.283C19.2514 131.547 19.1879 131.679 19.061 131.877C17.9821 135.307 17.4744 137.021 16.5225 140.451C16.5225 140.451 16.5831 140.487 16.6659 140.536C16.7311 140.574 16.81 140.62 16.884 140.663C16.9706 140.713 17.0505 140.759 17.0936 140.781C18.1091 139.33 18.9341 139.462 21.4726 140.913C33.5001 147.572 45.5711 154.141 57.6135 160.695L57.6179 160.697L57.632 160.705C60.1345 162.067 62.6358 163.428 65.1352 164.789C67.8007 166.24 68.6257 167.361 68.816 168.68L69.3237 168.944C71.0372 165.712 71.9257 164.129 73.7027 161.03ZM54.7279 167.361C61.5819 171.781 63.9301 180.421 60.8204 188.27C56.6953 198.691 45.4623 205.88 34.6101 202.45C22.6791 198.691 17.9193 184.312 21.9175 172.968C24.6464 165.251 33.087 157.534 41.718 161.491C41.4007 162.151 39.1794 166.9 39.1794 166.9C38.957 167.362 38.8282 167.662 38.6617 168.05L38.6603 168.054L38.6548 168.067C38.5856 168.228 38.5097 168.405 38.4179 168.615C41.5911 164.789 48.2547 163.206 54.7279 167.361ZM37.0852 171.846C34.2293 178.772 31.6274 185.697 29.1523 192.821C33.087 195.393 37.9736 196.778 42.2891 196.844C50.0317 197.174 57.3299 193.216 60.0588 185.433C62.28 179.102 60.0588 171.912 54.601 168.153C48.7624 164.13 40.3218 164.657 37.0852 171.846ZM28.5176 192.425C31.5639 183.719 34.7371 175.144 38.5448 166.768C30.8658 164.393 22.9329 168.944 21.4098 177.321C20.2675 183.455 23.5676 188.929 28.5176 192.425ZM13.7306 196.91C13.9844 196.976 14.1114 197.042 14.3652 197.108C16.3326 201.725 19.1249 205.286 24.6462 209.837C30.3572 214.19 36.1316 218.344 41.906 222.499L41.9082 222.501C44.8909 222.105 46.4141 221.907 49.3334 221.577L49.1404 222.359C48.6281 224.432 48.3205 225.677 47.8102 227.975C37.6562 229.426 27.629 231.273 17.6653 233.647C24.5193 237.539 31.5002 241.298 38.5447 244.86C41.0822 244.135 42.3514 243.805 44.8878 243.146L44.89 243.145L44.8909 243.145C44.8007 243.694 44.7183 244.189 44.6411 244.653C44.3383 246.472 44.1155 247.81 43.8121 250.07C34.9907 252.775 26.3597 255.743 17.7288 259.04C11.6364 261.283 5.29004 264.185 1.35535 269.725H0.657227C1.16492 262.998 1.48224 259.766 2.24377 253.302C2.30994 253.302 2.36749 253.307 2.4209 253.313C2.46948 253.319 2.51477 253.327 2.55994 253.335L2.56104 253.335C2.60828 253.343 2.65552 253.352 2.70667 253.358C2.75854 253.364 2.81445 253.368 2.87842 253.368C4.78235 256.336 7.19391 255.545 12.2075 253.698C20.5846 250.598 29.0252 247.696 37.5927 245.256C30.5483 241.628 23.5674 237.869 16.7134 233.911C11.1286 235.362 7.95544 236.681 4.71887 240.243C4.46503 240.177 4.33807 240.177 4.08423 240.111C5.03619 233.845 5.60736 230.745 6.81311 224.743C7.06702 224.809 7.19391 224.809 7.44775 224.875C9.30505 228.113 12.0107 227.589 17.8076 226.466C18.1511 226.399 18.5054 226.33 18.8711 226.26C26.1694 224.743 33.5945 223.49 40.9562 222.501C36.0061 219.071 31.1195 215.575 26.3597 211.948C19.5057 206.671 15.3172 204.429 11.2556 207.859C11.196 207.843 11.1434 207.828 11.0945 207.812C11.0393 207.795 10.9888 207.777 10.9382 207.76L10.9366 207.759L10.9357 207.759C10.8892 207.743 10.8425 207.726 10.7922 207.71C10.772 207.704 10.7512 207.697 10.7294 207.691L10.7049 207.684L10.6776 207.676L10.6475 207.668L10.6209 207.661C11.2557 205.516 11.7159 203.9 12.1762 202.284C12.6362 200.668 13.0962 199.053 13.7306 196.91ZM294.936 25.1603C293.73 16.4541 285.987 9.39687 277.356 10.9798C268.027 12.6287 266.377 24.0391 268.281 31.8219C270.185 39.4068 276.405 47.5193 284.591 45.3428C292.588 43.2322 296.078 33.0091 294.936 25.1603ZM366.711 69.1529C366.711 69.1529 366.902 68.8231 366.965 68.6912C366.33 67.5699 366.267 66.3168 367.6 63.5466C368.155 62.2451 368.713 60.9303 369.274 59.6097C371.213 55.041 373.183 50.4026 375.152 46.0023C377.881 40.0663 377.69 31.6899 370.773 28.9857C363.411 26.1496 357.128 31.8878 353.765 38.2195C353.818 37.9412 353.872 37.8039 353.964 37.5695L353.964 37.5682L353.965 37.5668L353.976 37.5388L354.019 37.428C356.748 31.0963 354.653 23.3135 348.053 21.071C339.613 18.1689 333.33 27.1389 330.474 33.9324L331.217 31.5457C332.784 26.5098 333.775 23.3248 335.487 17.6413C335.376 17.6123 335.289 17.5961 335.211 17.5814C335.11 17.5626 335.023 17.5464 334.916 17.5093C331.807 17.4434 330.22 17.4434 327.11 17.4434C327.11 17.4434 327.047 17.8391 326.983 17.971C328.506 18.5646 328.507 19.3561 327.808 21.9284C326.289 27.4567 324.713 32.985 323.137 38.5133L323.126 38.5491C322.337 41.3193 321.547 44.0895 320.764 46.8597C320.066 49.432 319.241 50.3554 318.035 50.8171C318.035 50.949 317.908 51.3448 317.908 51.3448C321.208 52.1362 322.795 52.532 326.095 53.4554C326.095 53.4554 326.158 53.0596 326.222 52.9277C325.46 52.0043 325.27 50.7512 326.031 48.1789C326.607 46.2218 326.967 45.0713 327.502 43.3609L327.509 43.3387L327.509 43.3368C327.621 42.9789 327.741 42.5964 327.872 42.1769C330.093 34.8558 334.789 20.7412 344.118 21.4667C350.401 21.9284 350.909 28.9857 348.751 34.46C347.553 37.5067 346.34 40.5533 345.126 43.6L345.099 43.6698C343.878 46.7338 342.658 49.7978 341.453 52.8618C340.438 55.3681 339.549 56.2914 338.343 56.6212C338.28 56.8191 338.153 57.1489 338.153 57.1489C341.323 58.2692 342.91 58.8628 346.078 60.0481L346.083 60.0497L346.086 60.0509C346.086 60.0509 346.213 59.6552 346.276 59.5233C345.578 58.468 345.515 57.2148 346.594 54.7085C346.817 54.1693 347.023 53.6723 347.217 53.2042C348.233 50.7525 348.922 49.0906 350.147 46.2661C353.194 39.2089 358.525 28.2602 366.648 28.9857C372.677 29.5133 372.296 37.0983 370.138 42.5726C368.601 46.4227 366.991 50.2982 365.383 54.1676C364.402 56.5292 363.421 58.8884 362.459 61.2382C361.507 63.6785 360.555 64.7338 359.286 64.9317C359.223 65.1295 359.032 65.4594 359.032 65.4594C362.045 66.8293 363.63 67.6186 366.612 69.1035L366.616 69.1052L366.711 69.1529ZM402.632 62.7551C395.651 67.504 388.734 72.7145 382.197 77.7931C381.831 78.0712 381.444 78.3715 381.039 78.6855C377.032 81.7967 371.295 86.2514 366.395 83.7951C363.349 82.2122 361.826 79.1122 361.953 75.1548C364.342 74.291 365.754 73.825 367.823 73.1416L368.583 72.8907C368.817 72.8134 369.06 72.7328 369.314 72.6485C369.378 72.8464 369.441 72.9783 369.505 73.1762C366.712 76.7378 364.681 82.5419 367.981 83.7951C371.091 85.0482 375.914 81.8824 381.055 77.991C382.895 69.6146 384.672 61.2381 386.068 52.7958C387.401 44.5513 387.465 40.7258 385.497 36.2408C385.519 36.2064 385.54 36.174 385.558 36.1429C385.572 36.121 385.584 36.0998 385.597 36.0789C385.617 36.0442 385.637 36.0106 385.656 35.977C385.704 35.8945 385.751 35.8121 385.815 35.7132C390.321 37.8238 392.542 38.945 396.921 41.2535C396.794 41.4513 396.73 41.5833 396.603 41.7811C393.684 42.7045 393.24 44.881 392.351 49.5639C391.082 57.4127 389.432 65.1955 387.592 72.9124C392.351 69.2188 397.302 65.7231 402.252 62.2934C409.042 57.6106 412.533 54.5106 411.2 50.1575C411.244 50.0891 411.28 50.0286 411.317 49.9706C411.386 49.8606 411.456 49.7594 411.581 49.6299C414.253 51.2634 415.757 52.2676 417.986 53.7558L417.99 53.7586C418.46 54.0722 418.962 54.4074 419.514 54.7744C419.45 54.8734 419.387 54.9559 419.323 55.0383C419.283 55.0905 419.243 55.1426 419.203 55.1989C419.179 55.2316 419.156 55.2657 419.133 55.3021C413.213 56.3915 408.192 59.4114 403.08 62.4859L402.632 62.7551ZM450.147 94.3804L450.15 94.3792C451.57 93.51 452.774 92.7738 454.608 91.7098C454.418 87.6865 452.387 81.8824 449.467 79.1782C444.898 74.6272 438.171 74.3634 433.411 78.5846C427.628 83.6967 430.513 89.9665 433.233 95.8782C435.707 101.255 438.045 106.335 433.602 109.98C430.619 112.09 425.669 111.431 422.305 108.001C418.18 103.714 418.624 94.7438 420.846 89.4014C420.782 89.2694 420.719 89.2035 420.592 89.1375C417.869 91.1774 416.536 92.2325 413.883 94.3333L413.868 94.3454L413.865 94.3481C414.499 99.2288 416.149 103.582 420.084 107.407C424.971 112.09 432.586 113.343 437.917 109.056C443.731 104.368 440.784 98.0901 437.941 92.0307C435.383 86.5809 432.908 81.3083 436.965 77.5293C439.44 75.2868 444.073 74.957 448.008 78.6505C451.308 81.7505 451.244 89.0056 447.563 95.5352C447.69 95.6012 447.69 95.6672 447.817 95.7991C448.711 95.2591 449.455 94.804 450.147 94.3804ZM473.901 135.307C462.541 142.628 448.135 139.528 439.695 128.843C438.743 127.656 438.108 126.337 437.727 125.15C433.348 128.777 431.191 130.624 427.129 134.318C425.035 136.23 424.654 136.89 425.225 138.011L424.844 138.407C424.625 138.257 424.417 138.115 424.219 137.979C423.952 137.796 423.702 137.625 423.462 137.46L423.403 137.419L423.392 137.412L423.391 137.411C422.196 136.59 421.254 135.943 419.767 134.977L419.45 134.647C430.059 124.273 441.4 114.794 452.728 105.325C455.156 103.295 457.583 101.266 460.003 99.2288C462.224 97.3161 462.732 96.5906 461.907 95.2715C461.969 95.2064 462.078 95.1094 462.172 95.0276C462.209 94.9955 462.244 94.9656 462.273 94.9411C462.32 94.9016 462.351 94.8757 462.351 94.8757C464.89 96.6565 466.159 97.5799 468.634 99.4926C468.761 99.6905 468.824 99.7565 469.015 99.9543C463.115 104.899 457.089 109.646 451.063 114.393L451.06 114.394L451.055 114.399C458.924 109.452 473.076 104.11 479.359 113.541C483.928 120.467 480.692 130.954 473.901 135.307ZM471.617 129.503C476.694 125.677 481.58 116.575 476.059 111.563C469.015 105.099 453.974 112.354 447.12 117.565C443.858 120.136 442.042 121.62 439.197 123.944L439.186 123.954L439.177 123.961L438.045 124.886C438.108 125.281 438.679 126.93 440.075 128.645C448.516 138.671 462.034 136.758 471.617 129.503ZM470.151 181.043C470.273 181.347 470.401 181.665 470.537 182.004C470.537 182.004 470.918 181.872 471.045 181.74C471.299 180.421 472.251 179.431 474.916 178.244C479.887 176.096 484.896 173.987 489.884 171.888L489.892 171.884L489.932 171.867C491.36 171.266 492.786 170.666 494.209 170.066C502.522 167.427 504.172 157.93 500.999 150.741C497.509 142.826 487.99 141.441 482.341 147.443C476.693 142.826 469.077 142.562 463.493 147.377C458.86 151.334 458.987 157.996 461.652 163.338C464.825 169.67 471.933 171.253 478.216 170C473.916 171.971 471.821 172.961 467.662 174.926L467.647 174.933L467.627 174.942L467.618 174.946C468.68 177.386 469.25 178.803 470.151 181.043ZM487.508 165.909L487.497 165.914C484.986 167.037 482.838 167.997 479.612 169.472C473.901 170.527 466.729 170 463.366 164.459C461.525 161.36 461.843 156.215 465.333 153.115C474.218 144.541 485.324 148.762 490.147 159.249C491.226 161.557 491.48 163.668 491.48 164.13C490.435 164.599 489.503 165.017 488.633 165.406L487.508 165.909ZM490.845 158.853C489.195 155.292 486.466 151.07 482.976 148.036C488.053 142.628 496.62 143.683 499.857 150.411C502.522 155.951 498.524 160.832 492.686 163.47C492.495 163.602 492.368 163.668 492.178 163.734C491.988 162.283 491.67 160.568 490.845 158.853ZM480.565 210.299C482.85 216.235 488.307 219.731 493.956 221.577C493.902 221.743 493.894 221.863 493.855 222.053C493.847 222.09 493.839 222.129 493.829 222.171C486.911 220.06 480.882 215.443 478.471 208.056C474.98 197.174 479.55 184.246 490.211 180.091C501.825 175.606 514.2 183.257 517.564 195.195C519.087 200.735 518.96 207.99 517.691 213.663C516.246 213.696 515.176 213.712 514.092 213.729C513.033 213.745 511.962 213.762 510.519 213.794C510.488 213.695 510.472 213.613 510.456 213.53L510.455 213.529C510.44 213.447 510.424 213.365 510.392 213.267C516.485 208.122 519.087 198.559 515.469 191.435C510.329 181.212 495.479 182.861 487.673 188.995C481.39 193.942 477.519 202.45 480.565 210.299ZM486.022 252.972C486.594 261.612 492.749 270.846 501.507 271.901C508.044 272.693 514.39 268.67 515.469 261.678C515.533 262.602 515.596 263.063 515.66 263.921C515.66 263.921 516.04 270.253 516.104 271.176C526.702 269.791 529.241 257.193 527.908 248.355C526.067 235.89 516.104 223.292 502.586 226.062C490.147 228.568 485.261 241.166 486.022 252.972ZM512.106 232.526C513.438 240.836 514.454 249.213 515.215 257.589C515.977 265.965 509.25 272.363 501.317 271.044C494.082 269.791 489.195 262.734 488.117 255.544C486.847 246.97 491.29 239.121 498.525 235.098C502.396 233.053 507.409 231.932 512.106 232.526ZM516.421 263.789C515.659 253.368 514.454 242.947 512.804 232.592C518.515 232.987 524.862 238.066 526.385 243.87C528.542 252.379 525.179 261.612 516.421 263.789Z" fill="white"/>
</svg>
