<svg width="40" height="40" viewBox="0 0 40 40" fill="none" xmlns="http://www.w3.org/2000/svg">
<circle cx="20" cy="20" r="20" fill="#4C6030"/>
<path d="M25.4995 27.416C25.4035 26.528 25.1875 24.008 24.9235 21.68C24.6355 18.8 22.9555 17.456 21.0115 17.456C17.8915 17.456 17.0515 20.72 16.7635 23.408V11.696H16.5715L14.3155 12.2C14.3155 12.2 14.3155 12.344 14.3155 12.392C14.7955 12.464 14.8675 12.704 14.8675 13.544V27.416C14.8675 28.256 14.6995 28.616 14.3155 28.832C14.3155 28.88 14.3155 29 14.3155 29H17.2915C17.2915 29 17.2915 28.88 17.2915 28.832C16.9315 28.616 16.7635 28.256 16.7635 27.416V25.448C16.7635 23.432 17.2435 18.416 19.9315 17.888C21.9955 17.48 22.8835 19.52 23.0755 21.32C23.1955 22.568 23.5315 26.624 23.6275 27.416C23.6995 28.208 23.5795 28.616 23.2195 28.832C23.2195 28.88 23.2195 29 23.2195 29H26.1715C26.1715 29 26.1715 28.88 26.1715 28.832C25.8115 28.616 25.5955 28.28 25.4995 27.416Z" fill="white"/>
</svg>
